<svg version="1.1" id="Layer_1" xmlns="http://www.w3.org/2000/svg" xmlns:xlink="http://www.w3.org/1999/xlink" x="0px" y="0px"
	 width="100%" viewBox="0 0 64 64" enable-background="new 0 0 64 64" xml:space="preserve">
<path fill="#000000" opacity="1.000000" stroke="none" 
	d="
M65.000000,23.000000 
	C65.000000,36.958492 65.000000,50.916981 65.000000,64.937737 
	C43.771572,64.937737 22.542927,64.937737 1.000000,64.937737 
	C1.000000,51.314041 1.000000,37.625679 1.433210,23.468613 
	C2.577690,23.932487 3.839239,24.823782 3.912796,25.804205 
	C4.479179,33.353371 6.857500,40.036068 12.677198,45.133297 
	C14.962371,47.134781 19.298553,48.653763 19.545496,50.762047 
	C20.193314,56.292835 23.658201,54.888855 26.694523,54.975628 
	C30.352459,55.080170 34.039139,55.257149 37.669724,54.925278 
	C41.032139,54.617920 46.301476,57.345303 46.299881,50.382481 
	C46.299839,50.191910 47.145889,50.052937 47.542530,49.802872 
	C56.515659,44.145836 61.616535,36.221672 62.126705,25.436417 
	C62.167171,24.580887 64.000092,23.810144 65.000000,23.000000 
z"/>
<path fill="#000000" opacity="1.000000" stroke="none" 
	d="
M1.000000,17.000000 
	C1.000000,11.691373 1.000000,6.382746 1.000000,1.037059 
	C22.209751,1.037059 43.419579,1.037059 65.000000,1.037059 
	C65.000000,6.013121 65.000000,11.035362 64.531342,16.529160 
	C43.041790,17.000479 22.020895,17.000238 1.000000,17.000000 
z"/>
<path fill="#FFFFFF" opacity="1.000000" stroke="none" 
	d="
M1.000000,17.428463 
	C22.020895,17.000238 43.041790,17.000479 64.531342,17.000359 
	C65.000000,18.714357 65.000000,20.428717 65.000000,22.571537 
	C64.000092,23.810144 62.167171,24.580887 62.126705,25.436417 
	C61.616535,36.221672 56.515659,44.145836 47.542530,49.802872 
	C47.145889,50.052937 46.299839,50.191910 46.299881,50.382481 
	C46.301476,57.345303 41.032139,54.617920 37.669724,54.925278 
	C34.039139,55.257149 30.352459,55.080170 26.694523,54.975628 
	C23.658201,54.888855 20.193314,56.292835 19.545496,50.762047 
	C19.298553,48.653763 14.962371,47.134781 12.677198,45.133297 
	C6.857500,40.036068 4.479179,33.353371 3.912796,25.804205 
	C3.839239,24.823782 2.577690,23.932487 1.433210,22.999954 
	C1.000000,21.285643 1.000000,19.571283 1.000000,17.428463 
M39.499573,23.000381 
	C28.724463,23.000381 17.949350,23.000381 7.275087,23.000381 
	C5.686333,31.148714 12.805168,44.400497 20.861155,47.116020 
	C30.720293,50.439350 41.221172,51.874535 49.870258,43.912601 
	C55.722446,38.525352 59.682636,31.809322 58.788273,23.000381 
	C52.447411,23.000381 46.473381,23.000381 39.499573,23.000381 
M4.077679,20.469353 
	C4.529829,20.640295 4.981749,20.960037 5.434163,20.960737 
	C23.716911,20.989079 41.999722,20.996550 60.282417,20.957094 
	C60.889523,20.955784 61.495525,20.441648 62.102039,20.166559 
	C62.042953,19.777834 61.983868,19.389107 61.924778,19.000381 
	C60.380798,19.000381 58.836819,19.000381 57.292839,19.000381 
	C43.663750,19.000381 30.034472,18.960590 16.405680,19.024532 
	C12.295500,19.043816 8.186670,19.351124 4.077679,20.469353 
M34.463371,52.999622 
	C37.304111,52.999622 40.144848,52.999622 42.985588,52.999622 
	C42.955532,52.518059 42.925476,52.036491 42.895424,51.554928 
	C36.285515,51.554928 29.675610,51.554928 23.065702,51.554928 
	C23.055380,52.036491 23.045057,52.518059 23.034735,52.999622 
	C26.517828,52.999622 30.000923,52.999622 34.463371,52.999622 
z"/>
<path fill="#000000" opacity="1.000000" stroke="none" 
	d="
M39.999466,23.000381 
	C46.473381,23.000381 52.447411,23.000381 58.788273,23.000381 
	C59.682636,31.809322 55.722446,38.525352 49.870258,43.912601 
	C41.221172,51.874535 30.720293,50.439350 20.861155,47.116020 
	C12.805168,44.400497 5.686333,31.148714 7.275087,23.000381 
	C17.949350,23.000381 28.724463,23.000381 39.999466,23.000381 
z"/>
<path fill="#000000" opacity="1.000000" stroke="none" 
	d="
M4.077450,19.997925 
	C8.186670,19.351124 12.295500,19.043816 16.405680,19.024532 
	C30.034472,18.960590 43.663750,19.000381 57.292839,19.000381 
	C58.836819,19.000381 60.380798,19.000381 61.924778,19.000381 
	C61.983868,19.389107 62.042953,19.777834 62.102039,20.166559 
	C61.495525,20.441648 60.889523,20.955784 60.282417,20.957094 
	C41.999722,20.996550 23.716911,20.989079 5.434163,20.960737 
	C4.981749,20.960037 4.529829,20.640295 4.077450,19.997925 
z"/>
<path fill="#000000" opacity="1.000000" stroke="none" 
	d="
M33.973694,52.999622 
	C30.000923,52.999622 26.517828,52.999622 23.034735,52.999622 
	C23.045057,52.518059 23.055380,52.036491 23.065702,51.554928 
	C29.675610,51.554928 36.285515,51.554928 42.895424,51.554928 
	C42.925476,52.036491 42.955532,52.518059 42.985588,52.999622 
	C40.144848,52.999622 37.304111,52.999622 33.973694,52.999622 
z"/>
</svg>