<svg version="1.1" id="Layer_1" xmlns="http://www.w3.org/2000/svg" xmlns:xlink="http://www.w3.org/1999/xlink" x="0px" y="0px"
	 width="100%" viewBox="0 0 64 64" enable-background="new 0 0 64 64" xml:space="preserve">
<path fill="#000000" opacity="1.000000" stroke="none" 
	d="
M65.000000,18.997187 
	C65.000000,34.664341 65.000000,49.830948 65.000000,64.998169 
	C43.667572,64.998779 22.335142,64.998779 1.002034,64.999390 
	C1.001356,43.667660 1.001356,22.335318 1.000678,1.002232 
	C22.332253,1.001488 43.664505,1.001488 64.998383,1.000744 
	C65.000000,6.832211 65.000000,12.664424 65.000000,18.997187 
M33.496101,2.999379 
	C28.709156,2.999379 23.922211,2.999379 18.902035,2.999379 
	C19.399923,5.768799 17.831842,8.218560 21.722380,9.662532 
	C24.549004,10.711632 23.117481,16.406767 19.314537,20.181494 
	C12.487369,26.958008 10.340819,34.956650 12.996596,44.199360 
	C14.752507,50.310333 16.595343,56.396328 18.480652,62.768604 
	C28.000971,62.768604 38.448177,62.768604 47.463497,62.768604 
	C49.259468,56.775452 50.934818,51.434231 52.441368,46.045815 
	C53.131813,43.576321 53.738159,41.034966 53.953091,38.489925 
	C54.601662,30.810163 51.603275,24.617739 46.015938,19.418848 
	C42.696125,16.329840 41.669449,10.553663 44.274696,9.631192 
	C48.547462,8.118280 46.540451,5.596156 46.921421,2.999379 
	C42.454117,2.999379 38.472908,2.999379 33.496101,2.999379 
z"/>
<path fill="#FFFFFF" opacity="1.000000" stroke="none" 
	d="
M33.993900,2.999379 
	C38.472908,2.999379 42.454117,2.999379 46.921421,2.999379 
	C46.540451,5.596156 48.547462,8.118280 44.274696,9.631192 
	C41.669449,10.553663 42.696125,16.329840 46.015938,19.418848 
	C51.603275,24.617739 54.601662,30.810163 53.953091,38.489925 
	C53.738159,41.034966 53.131813,43.576321 52.441368,46.045815 
	C50.934818,51.434231 49.259468,56.775452 47.463497,62.768604 
	C38.448177,62.768604 28.000971,62.768604 18.480652,62.768604 
	C16.595343,56.396328 14.752507,50.310333 12.996596,44.199360 
	C10.340819,34.956650 12.487369,26.958008 19.314537,20.181494 
	C23.117481,16.406767 24.549004,10.711632 21.722380,9.662532 
	C17.831842,8.218560 19.399923,5.768799 18.902035,2.999379 
	C23.922211,2.999379 28.709156,2.999379 33.993900,2.999379 
M25.866810,19.002447 
	C25.219534,19.214079 24.572260,19.425709 23.924984,19.637341 
	C23.943384,19.945305 23.961784,20.253267 23.980185,20.561232 
	C26.340101,20.854061 28.700020,21.146891 31.059937,21.439720 
	C31.048971,21.863022 31.038008,22.286322 31.027042,22.709623 
	C29.521696,22.806610 28.003994,23.073519 26.513577,22.965166 
	C23.421581,22.740387 20.223057,22.760185 18.746939,25.880575 
	C17.127766,29.303370 14.803364,33.271442 15.300646,36.629574 
	C16.270372,43.178120 18.930532,49.488194 21.085600,55.830788 
	C21.297831,56.455410 22.856859,56.933434 23.799269,56.948517 
	C29.956913,57.047047 36.122032,57.129848 42.271770,56.888321 
	C43.494316,56.840309 45.279953,55.623699 45.744129,54.505280 
	C47.575619,50.092388 49.080307,45.534477 50.528000,40.973789 
	C52.931328,33.402523 48.108215,24.019197 41.034981,22.406898 
	C41.354431,21.381432 41.672253,20.361204 42.096085,19.000658 
	C36.767155,19.000658 31.784225,19.000658 25.866810,19.002447 
M30.605492,16.999380 
	C33.915722,16.999380 37.225948,16.999380 40.298515,16.999380 
	C40.298515,14.270147 40.298515,11.748158 40.298515,9.186302 
	C35.495819,9.186302 30.396599,9.186302 25.669117,9.186302 
	C25.848831,11.760135 26.017433,14.174824 26.214653,16.999369 
	C27.413830,16.999369 28.535978,16.999369 30.605492,16.999380 
M45.921898,59.530712 
	C37.300098,59.530712 28.678301,59.530712 20.056501,59.530712 
	C20.065481,59.844971 20.074463,60.159229 20.083443,60.473488 
	C28.696415,60.473488 37.309387,60.473488 45.921898,59.530712 
M22.079893,5.508167 
	C22.872873,6.004975 23.657568,6.916391 24.460155,6.932429 
	C30.415154,7.051428 36.373978,7.017239 42.330715,6.951220 
	C42.926552,6.944615 43.516491,6.405271 44.109165,6.113173 
	C44.049202,5.754621 43.989239,5.396069 43.929276,5.037517 
	C36.917233,5.037517 29.905190,5.037517 22.079893,5.508167 
z"/>
<path fill="#000000" opacity="1.000000" stroke="none" 
	d="
M26.334053,19.001553 
	C31.784225,19.000658 36.767155,19.000658 42.096085,19.000658 
	C41.672253,20.361204 41.354431,21.381432 41.034981,22.406898 
	C48.108215,24.019197 52.931328,33.402523 50.528000,40.973789 
	C49.080307,45.534477 47.575619,50.092388 45.744129,54.505280 
	C45.279953,55.623699 43.494316,56.840309 42.271770,56.888321 
	C36.122032,57.129848 29.956913,57.047047 23.799269,56.948517 
	C22.856859,56.933434 21.297831,56.455410 21.085600,55.830788 
	C18.930532,49.488194 16.270372,43.178120 15.300646,36.629574 
	C14.803364,33.271442 17.127766,29.303370 18.746939,25.880575 
	C20.223057,22.760185 23.421581,22.740387 26.513577,22.965166 
	C28.003994,23.073519 29.521696,22.806610 31.027042,22.709623 
	C31.038008,22.286322 31.048971,21.863022 31.059937,21.439720 
	C28.700020,21.146891 26.340101,20.854061 23.980185,20.561232 
	C23.961784,20.253267 23.943384,19.945305 23.924984,19.637341 
	C24.572260,19.425709 25.219534,19.214079 26.334053,19.001553 
z"/>
<path fill="#000000" opacity="1.000000" stroke="none" 
	d="
M30.131809,16.999374 
	C28.535978,16.999369 27.413830,16.999369 26.214653,16.999369 
	C26.017433,14.174824 25.848831,11.760135 25.669117,9.186302 
	C30.396599,9.186302 35.495819,9.186302 40.298515,9.186302 
	C40.298515,11.748158 40.298515,14.270147 40.298515,16.999380 
	C37.225948,16.999380 33.915722,16.999380 30.131809,16.999374 
z"/>
<path fill="#000000" opacity="1.000000" stroke="none" 
	d="
M45.922127,60.002098 
	C37.309387,60.473488 28.696415,60.473488 20.083443,60.473488 
	C20.074463,60.159229 20.065481,59.844971 20.056501,59.530712 
	C28.678301,59.530712 37.300098,59.530712 45.922127,60.002098 
z"/>
<path fill="#000000" opacity="1.000000" stroke="none" 
	d="
M22.486519,5.272842 
	C29.905190,5.037517 36.917233,5.037517 43.929276,5.037517 
	C43.989239,5.396069 44.049202,5.754621 44.109165,6.113173 
	C43.516491,6.405271 42.926552,6.944615 42.330715,6.951220 
	C36.373978,7.017239 30.415154,7.051428 24.460155,6.932429 
	C23.657568,6.916391 22.872873,6.004975 22.486519,5.272842 
z"/>
</svg>